<?xml version="1.0" encoding="UTF-8"?><svg id="a" xmlns="http://www.w3.org/2000/svg" viewBox="0 0 595.32 1000"><path d="M265.03,441.92l-.84-2.28c-36.76-96.05-165.16-117.43-230.88-38.28C-2.41,443.9-7.89,506.27,9.67,557.72c14.78,42.4,52.04,75.67,95.76,85.8l2.28,.48-8.52,45.96h51l8.52-43.92,2.28-.48c46.24-7.69,86.74-41.37,103.2-85.2l.84-2.28-62.4-24.6-.24,1.08c-7.79,41.45-55.72,65.42-93.6,46.92-32.37-14.64-41.03-48.71-40.8-81.48-.24-32.77,8.45-66.83,40.8-81.48,37.89-18.45,85.77,5.46,93.6,46.92l.24,1.08,62.4-24.6Z"/></svg>