<?xml version="1.0" encoding="UTF-8"?><svg id="a" xmlns="http://www.w3.org/2000/svg" viewBox="0 0 595.32 1000"><path d="M273.27,448.76c-15.91-50.68-62.83-89.19-115.56-95.28C49.33,341.75-21.72,443.38,6.03,544.28c26.61,99.93,151.36,136.96,228,67.44,45.01-39.74,57.19-107.09,39.24-162.96Zm-77.04,102.72c-30.54,48.39-105.03,36.51-119.28-18.84-12.47-47.81,.93-109.13,58.56-114.36,28.98-2.89,58.04,16.14,67.32,43.68,8.61,28.74,9.02,63.12-6.6,89.52Z"/><polygon points="122.31 338.48 159.15 338.48 201.63 281.72 144.99 281.72 122.31 338.48"/></svg>