<?xml version="1.0" encoding="UTF-8"?><svg id="a" xmlns="http://www.w3.org/2000/svg" viewBox="0 0 595.32 1000"><path d="M208.69,368.72c-51.44-27.64-119.46-19.18-162.12,20.88C3.53,427.43-8.4,491.24,5.53,544.28c18.75,71.02,94.21,115.63,165.6,100.44l2.52-.48,16.08,30.12,53.88-28.32-15.6-27,1.8-1.32c81.14-60.06,70.13-203.95-21.12-249Zm-13.92,190.68l-.72,.96-12.6-22.08-50.4,25.44,11.88,21.36h-1.2c-47.25-2.05-70.31-41.14-69.6-85.08,.37-21.55,4.39-44.51,18.96-61.2,21.89-26.26,63.24-31.62,90.72-11.04,16,11.42,25.52,29.6,28.32,48.84,4.28,27.87,2.82,59.89-15.36,82.8Z"/></svg>