<?xml version="1.0" encoding="UTF-8"?><svg id="a" xmlns="http://www.w3.org/2000/svg" viewBox="0 0 595.32 1000"><path d="M0,596.96l2.28,2.16c48.59,46.24,123.82,61.2,186.24,36.48,57.41-19.51,84.84-79.26,47.76-130.92-26.3-35.48-74.85-39.95-115.2-47.4-5.9-1.72-12.79-3.96-16.08-9.36-4.64-9.72,1.23-22.48,10.68-27.12,28.55-13.41,67.6-2.44,92.64,14.52l1.56,1.08,44.04-46.32-2.52-1.8c-49.27-37.12-118.05-45.92-175.08-22.44-52.42,21.89-65.78,92.31-25.2,132,23.09,23.19,58.28,25.9,88.68,32.88,12.55,1.12,28.78,4.34,34.2,16.92,2.89,7.09,.37,15.35-4.08,21.36-10.38,13.66-36.66,14.47-52.68,13.92-24.68-1.85-48.69-12.72-66-30.48l-1.2-1.2L0,596.96Z"/></svg>