<?xml version="1.0" encoding="UTF-8"?><svg id="a" xmlns="http://www.w3.org/2000/svg" viewBox="0 0 595.32 1000"><path d="M66.63,358.28H.03v168c-1.44,64.13,54.91,121.36,119.04,121.08,65.93,2.42,124.52-55.11,123.24-121.08v-168h-66.6v168c.7,29.54-25.94,55.67-55.44,54.48-28.86,.21-54.33-25.63-53.64-54.48v-168Z"/><path d="M63.75,341.24c22.66,.44,38.2-24.65,28.08-44.88-11.09-22.99-45.04-23.21-56.04,0-10.41,20.04,5.43,45.38,27.96,44.88Z"/><path d="M178.59,341.24c22.57,.47,38.32-24.83,27.96-44.88-10.98-23.17-44.95-23.03-56.04,0-10.14,20.21,5.42,45.34,28.08,44.88Z"/></svg>