<?xml version="1.0" standalone="no"?>
<!DOCTYPE svg PUBLIC "-//W3C//DTD SVG 1.1//EN" "http://www.w3.org/Graphics/SVG/1.1/DTD/svg11.dtd" >
<svg xmlns="http://www.w3.org/2000/svg" xmlns:xlink="http://www.w3.org/1999/xlink" version="1.1" viewBox="-10 0 362 1000">
   <path fill="currentColor"
d="M220.078 241.551h90.1016v400.055h-78.0781l-5.92578 -11.5195l-1.86328 1.01953c-20.9785 12.9658 -42.7344 18.7236 -63.9043 18.7236c-74.8623 0 -142.409 -71.9912 -142.409 -151.808c0 -0.803711 0.00683594 -1.60742 0.0205078 -2.41211
c-0.00976562 -0.679688 -0.0146484 -1.3584 -0.0146484 -2.03613c0 -78.8672 65.166 -150.661 138.799 -150.661c20.8418 0 42.3613 5.75195 63.2744 18.7246v-120.086zM214.316 537.613c5.04395 -8.40527 5.91211 -21.2402 5.91211 -33.6211
c0 -6.5 -0.239258 -12.874 -0.239258 -18.416c0 -2.21387 0.0966797 -5.90918 0.0966797 -5.96875c0 -32.5537 -28.1064 -56.0762 -57.6475 -56.0762c-10.0459 0 -20.2578 2.71973 -29.5869 8.73047c-13.5781 8.35547 -23.1484 22.7539 -25.9141 38.4492
c-0.666992 6.83105 -1.08008 16.791 -1.08008 26.7529c0 10.0439 0.419922 20.0898 1.41992 26.9346c5.05078 24.5625 27.5938 44.3789 52.8438 45.0547c1.25586 0.09375 2.51074 0.139648 3.76465 0.139648c21.0049 0 41.4697 -12.9473 50.4307 -31.9795z" />
</svg>
