<?xml version="1.0" standalone="no"?>
<!DOCTYPE svg PUBLIC "-//W3C//DTD SVG 1.1//EN" "http://www.w3.org/Graphics/SVG/1.1/DTD/svg11.dtd" >
<svg xmlns="http://www.w3.org/2000/svg" xmlns:xlink="http://www.w3.org/1999/xlink" version="1.1" viewBox="-10 0 330 1000">
   <path fill="currentColor"
d="M277.445 405.332c20.46 27.5557 26.5352 61.6328 26.5352 95.3193c0 6.53613 -0.228516 13.0566 -0.625 19.5127l-0.507812 5.42188h-191.219l0.167969 0.847656c6.25684 30.8799 28.125 42.8252 52.8701 42.8252c25.4473 0 53.9365 -12.6328 71.6182 -30.2939
l1.35547 -1.35156l61.9883 61.9883l-2.87891 2.37109c-36.3691 28.4824 -84.7051 47.7246 -131.875 47.7246c-26.5801 0 -52.79 -6.11035 -76.2812 -20.1191c-39.1523 -23.1016 -65.5859 -66.207 -68.0859 -111.613l-0.507812 -41.4961
c3.35938 -48.7344 33.6914 -94.0586 77.4023 -115.852c19.6055 -10.166 41.3213 -15.0234 63.0342 -15.0234c45.4727 0 90.9385 21.2998 117.009 59.7383zM113.664 459.531h99.9844l-0.226562 -0.847656c-6.45801 -26.0029 -28.0713 -39.0137 -49.7129 -39.0137
c-21.6328 0 -43.2939 13 -49.877 39.0137z" />
</svg>
