<?xml version="1.0" standalone="no"?>
<!DOCTYPE svg PUBLIC "-//W3C//DTD SVG 1.1//EN" "http://www.w3.org/Graphics/SVG/1.1/DTD/svg11.dtd" >
<svg xmlns="http://www.w3.org/2000/svg" xmlns:xlink="http://www.w3.org/1999/xlink" version="1.1" viewBox="-10 0 358 1000">
   <path fill="currentColor"
d="M228.148 349.609h79.9414v272.008c-0.226562 41.2578 -24.7266 79.9297 -60.125 100.438c-23.8115 14.3027 -51.6914 20.0742 -80.5078 20.0742c-46.8877 0 -96.252 -15.2812 -134.594 -33.9609l-4.74219 -2.54297l39.9727 -74.0117l2.87891 1.86328
c28.1484 16.2607 61.6484 28.1699 94.668 28.1699c7.79102 0 15.5547 -0.663086 23.2148 -2.08789c21.7773 -5.63281 30.9219 -29.3984 31.1641 -50.1328v-1.35547l-1.52734 1.01562c-17.4307 11.4131 -37.5918 16.4717 -57.9785 16.4717
c-23.0273 0 -46.3428 -6.45215 -66.3379 -17.4873c-43.5449 -23.7861 -72.1562 -71.7881 -72.1562 -121.409c0 -0.349609 0.000976562 -0.698242 0.00390625 -1.04785c-0.0146484 -0.800781 -0.0224609 -1.60059 -0.0224609 -2.39844
c0 -75.4463 66.7334 -137.867 137.189 -137.867c20.5361 0 41.3887 5.30371 60.9971 17.1328l1.52344 1.01953zM220.02 480.531v-0.84375c0.000976562 -0.150391 0.00195312 -0.300781 0.00195312 -0.450195c0 -28.2422 -24.8115 -53.2979 -53.0176 -53.5811
c-0.969727 -0.0576172 -1.93652 -0.0859375 -2.90039 -0.0859375c-28.54 0 -54.0068 25.0068 -54.0068 53.7666c0 0.117188 0 0.233398 0.000976562 0.350586v11.8555c-0.000976562 0.09375 -0.000976562 0.1875 -0.000976562 0.28125
c0 28.8828 25.5264 53.8203 54.2051 53.8203c0.897461 0 1.79883 -0.0244141 2.70215 -0.0742188c28.2725 -0.447266 53.0176 -25.3359 53.0176 -53.6475c0 -0.126953 -0.000976562 -0.25293 -0.00195312 -0.379883v-11.0117z" />
</svg>
