<?xml version="1.0" standalone="no"?>
<!DOCTYPE svg PUBLIC "-//W3C//DTD SVG 1.1//EN" "http://www.w3.org/Graphics/SVG/1.1/DTD/svg11.dtd" >
<svg xmlns="http://www.w3.org/2000/svg" xmlns:xlink="http://www.w3.org/1999/xlink" version="1.1" viewBox="-10 0 362 1000">
   <path fill="currentColor"
d="M38 641.605v-400.055h92.1367v120.086l1.86328 -1.1875c19.0547 -10.9102 39.3662 -15.8848 59.2529 -15.8848c63.5527 0 122.776 50.8018 122.821 121.064v175.977h-91.9688v-162.09c0.00585938 -0.280273 0.00878906 -0.561523 0.00878906 -0.84082
c0 -23.9404 -21.043 -45.0713 -45.0098 -45.0713c-0.355469 0 -0.711914 0.00390625 -1.06934 0.0136719c-0.310547 -0.00683594 -0.620117 -0.0107422 -0.929688 -0.0107422c-23.9062 0 -44.9795 21.0732 -44.9795 44.9795
c0 0.30957 0.00390625 0.619141 0.0107422 0.929688v162.09h-92.1367z" />
</svg>
