<?xml version="1.0" standalone="no"?>
<!DOCTYPE svg PUBLIC "-//W3C//DTD SVG 1.1//EN" "http://www.w3.org/Graphics/SVG/1.1/DTD/svg11.dtd" >
<svg xmlns="http://www.w3.org/2000/svg" xmlns:xlink="http://www.w3.org/1999/xlink" version="1.1" viewBox="-10 0 226 1000">
   <path fill="currentColor"
d="M178.152 349.609v310.797c0.00488281 0.342773 0.0078125 0.686523 0.0078125 1.0293c0 28.376 -17.9922 55.3877 -44.168 66.3223c-0.367188 0.15625 -0.734375 0.28125 -1.11719 0.410156c-16.4004 5.27148 -33.6582 7.5791 -51.0146 7.5791
c-22.4209 0 -45.0088 -3.84961 -66.1299 -10.1338l-3.73047 -1.1875l24.0508 -81.9883l0.847656 0.507812c7.02832 4.7168 18.9551 9.23047 29.0801 9.23047c9.2959 0 17.0732 -3.80469 18.1465 -14.75c0.0273438 -0.152344 0.0273438 -0.308594 0.0273438 -0.464844
v-287.352h94zM131.07 335.551c-0.102539 0.000976562 -0.204102 0.000976562 -0.306641 0.000976562c-23.6152 0 -44.417 -16.627 -50.166 -39.4619c-1.03906 -4.18652 -1.5332 -8.36523 -1.5332 -12.4688c0 -27.7441 22.5703 -52.0635 51.7197 -52.0635
c0.0947266 0 0.19043 0 0.286133 0.000976562c0.0957031 -0.000976562 0.191406 -0.000976562 0.287109 -0.000976562c29.0557 0 51.7998 24.1562 51.7998 51.8223c0 4.18066 -0.519531 8.44043 -1.61426 12.71c-5.25391 22.6934 -26.7471 39.4639 -49.9502 39.4639
c-0.174805 0 -0.348633 -0.000976562 -0.522461 -0.00292969z" />
</svg>
