<?xml version="1.0" standalone="no"?>
<!DOCTYPE svg PUBLIC "-//W3C//DTD SVG 1.1//EN" "http://www.w3.org/Graphics/SVG/1.1/DTD/svg11.dtd" >
<svg xmlns="http://www.w3.org/2000/svg" xmlns:xlink="http://www.w3.org/1999/xlink" version="1.1" viewBox="-10 0 510 1000">
   <path fill="currentColor"
d="M40 641.605v-291.996h79.9414l7.96094 19.9883l1.1875 -1.1875c17.25 -16.832 40.6182 -25.1084 63.9863 -25.1084c27.1475 0 54.2959 11.1699 71.8496 33.0693l1.01562 1.18359l1.52344 -1.35547c23.5283 -22.5908 52.0723 -32.7012 80.0918 -32.7012
c60.4229 0 118.409 47.0186 118.409 117.307c0 0.140625 -0.000976562 0.28125 -0.000976562 0.421875v180.379h-91.9688v-172.082c-0.967773 -25.1211 -19.4873 -37.7109 -38.0127 -37.7109c-18.4951 0 -36.9961 12.5508 -38.0342 37.7109v172.082h-89.9336v-172.082
c-1.05078 -25.1338 -19.5801 -37.71 -38.0879 -37.71c-18.5 0 -36.9785 12.5654 -37.959 37.71v172.082h-91.9688z" />
</svg>
