<?xml version="1.0" standalone="no"?>
<!DOCTYPE svg PUBLIC "-//W3C//DTD SVG 1.1//EN" "http://www.w3.org/Graphics/SVG/1.1/DTD/svg11.dtd" >
<svg xmlns="http://www.w3.org/2000/svg" xmlns:xlink="http://www.w3.org/1999/xlink" version="1.1" viewBox="-10 0 374 1000">
   <path fill="currentColor"
d="M340.461 472.066c0.962891 7.92676 1.45898 15.9756 1.45898 24.0488c0 41.3047 -12.9873 83.2275 -42.9512 112.463c-25.873 26.5527 -62.8359 41.0059 -99.6318 41.0059c-21.958 0 -43.8574 -5.14648 -63.3057 -15.9395l-2.03125 -1.18359v95.1836h-94v-378.035
h81.9766l7.95703 13.8906l1.86328 -1.1875c22.1074 -14.3779 45.9414 -20.8418 69.3271 -20.8418c68.6914 0 133.515 55.7725 139.337 130.596zM215.469 566.914c26.7061 -11.082 36.1699 -37.6035 36.1699 -64.542c0 -1.57617 -0.0322266 -3.15527 -0.0957031 -4.73145
c0.0644531 -1.60449 0.0986328 -3.20801 0.0986328 -4.81055c0 -27.0283 -9.4707 -53.332 -36.1729 -64.6309c-6.98242 -3.16797 -14.5107 -4.6377 -22.0713 -4.6377c-27.9092 0 -56.2744 20.0195 -59.3975 48.5049v51.1484c3.16113 28.3652 31.5664 48.417 59.3682 48.417
c7.58691 0 15.1289 -1.49316 22.1006 -4.71777z" />
</svg>
