<?xml version="1.0" standalone="no"?>
<!DOCTYPE svg PUBLIC "-//W3C//DTD SVG 1.1//EN" "http://www.w3.org/Graphics/SVG/1.1/DTD/svg11.dtd" >
<svg xmlns="http://www.w3.org/2000/svg" xmlns:xlink="http://www.w3.org/1999/xlink" version="1.1" viewBox="-10 0 370 1000">
   <path fill="currentColor"
d="M238.008 349.609h82.1445v378.035h-92.1367v-95.1836l-1.86328 1.18359c-19.1338 10.7559 -40.6641 15.8467 -62.2617 15.8467c-37.3809 0 -74.9629 -15.25 -100.672 -42.7764c-28.7822 -28.9658 -41.2168 -70.0156 -41.2168 -110.424
c0 -9.28906 0.657227 -18.5439 1.92383 -27.6113c6.76367 -72.0068 70.9443 -127.325 138.029 -127.325c22.4912 0 45.3096 6.21777 66.4004 20.1104l1.69141 1.01562zM228.016 471.559v-0.339844c-3.13965 -27.7002 -30.9385 -47.6914 -58.1836 -47.6914
c-7.53027 0 -15.0166 1.52734 -21.9297 4.83984c-26.8789 11.1016 -35.6377 38.082 -35.6377 65.0146c0 1.4209 0.0244141 2.84082 0.0712891 4.25879c-0.0439453 1.37598 -0.0664062 2.75391 -0.0664062 4.13086c0 27.043 8.67676 53.791 35.6328 65.1426
c6.92285 3.22656 14.3896 4.71875 21.8857 4.71875c27.2861 0 54.9609 -19.7666 58.2275 -47.5703v-52.5039z" />
</svg>
