<?xml version="1.0" standalone="no"?>
<!DOCTYPE svg PUBLIC "-//W3C//DTD SVG 1.1//EN" "http://www.w3.org/Graphics/SVG/1.1/DTD/svg11.dtd" >
<svg xmlns="http://www.w3.org/2000/svg" xmlns:xlink="http://www.w3.org/1999/xlink" version="1.1" viewBox="-10 0 306 1000">
   <path fill="currentColor"
d="M12 595.535l57.5977 -59.957l1.86719 1.52344c19.7344 16.1699 51.7129 30.3945 79.6035 30.3945c4.44434 0 8.78418 -0.360352 12.9551 -1.13281c3.54297 -0.648438 6.92969 -1.96484 9.89453 -3.99609c4.65625 -3.1875 8.21484 -7.46484 6.28125 -13.0703
c-4.17969 -9.72266 -37.0508 -15.5547 -48.6094 -17.7812c-30.418 -3.96875 -64.0352 -12.125 -85.3633 -35.5703c-13.0703 -14.9062 -18.9775 -33.4814 -18.9775 -52.291c0 -34.5488 19.9287 -69.8867 52.0049 -84.7285
c18.2168 -8.14551 38.4658 -11.6504 59.3291 -11.6504c47.9658 0 99.1865 18.5273 136.464 41.7988l3.89453 2.53906l-56.9102 61.9883l-1.69141 -1.35156c-19.4072 -14.9893 -44.2754 -26.1396 -69.1445 -26.1396c-6.51172 0 -13.0234 0.764648 -19.4375 2.4248
c-4.26172 1.07422 -9.38281 3.96875 -11.0078 7.625c-0.707031 1.96094 -0.648438 3.90625 -0.0585938 5.62891c0.988281 2.88281 3.60156 4.88672 6.59375 5.44922l64.7539 12.293l2.54297 0.679688c28.8633 7.57812 58.0781 22.8633 73.8438 49.1172
c8.97852 14.1074 13.3018 30.5039 13.3018 46.9209c0 24.2324 -9.41895 48.5107 -27.1885 65.54c-22.6309 23.0967 -55.8994 27.9531 -86.9033 27.9531c-0.730469 0 -1.45898 -0.00292969 -2.18652 -0.0078125c-0.857422 0.00976562 -1.71582 0.0146484 -2.57324 0.0146484
c-53.1523 0 -106.028 -18.4316 -147.657 -51.5029z" />
</svg>
