<?xml version="1.0" standalone="no"?>
<!DOCTYPE svg PUBLIC "-//W3C//DTD SVG 1.1//EN" "http://www.w3.org/Graphics/SVG/1.1/DTD/svg11.dtd" >
<svg xmlns="http://www.w3.org/2000/svg" xmlns:xlink="http://www.w3.org/1999/xlink" version="1.1" viewBox="-10 0 446 1000">
   <path fill="currentColor"
d="M408.07 359.602l-88.0742 34.7227l-0.339844 -1.52344c-8.46777 -44.8389 -50.1221 -75.1338 -93.1934 -75.1338c-13.1406 0 -26.4141 2.82031 -38.916 8.90723c-45.0547 20.4072 -57.5928 67.4912 -57.5928 113.174c0 0.610352 0.00195312 1.2207 0.00683594 1.83008
c-0.00390625 0.59082 -0.00585938 1.18262 -0.00585938 1.77441c0 45.7002 12.4883 92.8301 57.5918 113.229c12.5049 6.10645 25.7852 8.93457 38.9355 8.93457c43.0742 0 84.75 -30.3408 93.1738 -75.1611l0.339844 -1.52344l88.0742 34.7227l-1.1875 3.21875
c-23.2305 61.8633 -80.3945 109.398 -145.656 120.25l-3.21875 0.679688l-12.0273 61.9883h-71.9805l12.0234 -64.8672l-3.21875 -0.679688c-61.707 -14.2969 -114.297 -61.2539 -135.156 -121.098c-8.94141 -26.1973 -13.6504 -54.4004 -13.6504 -82.5703
c0 -49.9199 14.7871 -99.7383 47.0176 -138.121c38.5791 -46.4639 92.4629 -68.3828 145.979 -68.3828c75.1543 0 149.585 43.2275 179.889 122.41z" />
</svg>
