<?xml version="1.0" standalone="no"?>
<!DOCTYPE svg PUBLIC "-//W3C//DTD SVG 1.1//EN" "http://www.w3.org/Graphics/SVG/1.1/DTD/svg11.dtd" >
<svg xmlns="http://www.w3.org/2000/svg" xmlns:xlink="http://www.w3.org/1999/xlink" version="1.1" viewBox="-10 0 270 1000">
   <path fill="currentColor"
d="M44.8564 217.5c-0.30957 0.00683594 -0.619141 0.0107422 -0.927734 0.0107422c-24.4863 0 -43.1475 -21.6289 -43.1475 -44.4551c0 -6.35449 1.44531 -12.8008 4.61426 -18.8994c7.74316 -16.3398 23.5469 -24.4531 39.3857 -24.4531
c15.9141 0 31.8633 8.19043 39.708 24.4531c3.05273 6.10254 4.45117 12.5176 4.45117 18.8271c0 22.9609 -18.5195 44.5244 -43.2549 44.5244c-0.275391 0 -0.551758 -0.00195312 -0.829102 -0.0078125zM205.946 217.5
c-0.290039 0.00585938 -0.580078 0.00878906 -0.869141 0.00878906c-24.7109 0 -43.2256 -21.5762 -43.2256 -44.5215c0 -6.31348 1.40137 -12.7314 4.46191 -18.8311c7.83789 -16.2764 23.7744 -24.4531 39.6787 -24.4531c15.8555 0 31.6787 8.12695 39.415 24.4531
c3.15332 6.10059 4.59277 12.5459 4.59277 18.8975c0 22.8379 -18.6221 44.4551 -43.1787 44.4551c-0.291016 0 -0.583008 -0.00292969 -0.875 -0.00878906zM78.8838 641.773v-400.391h92.3086v400.391h-92.3086z" />
</svg>
