<?xml version="1.0" standalone="no"?>
<!DOCTYPE svg PUBLIC "-//W3C//DTD SVG 1.1//EN" "http://www.w3.org/Graphics/SVG/1.1/DTD/svg11.dtd" >
<svg xmlns="http://www.w3.org/2000/svg" xmlns:xlink="http://www.w3.org/1999/xlink" version="1.1" viewBox="-10 0 478 1000">
   <path fill="currentColor"
d="M421.695 369.258c7.44922 23.1846 11.2217 47.7686 11.2217 72.3516c0 59.0312 -21.7549 118.054 -66.6045 157.652c-38.0283 34.4941 -84.4482 50.4033 -130.292 50.4033c-84.5605 0 -167.16 -54.1279 -191.513 -145.587
c-5.76465 -20.96 -8.50879 -41.9424 -8.50879 -62.4336c0 -111.336 81.0078 -208.175 198.656 -208.175c7.82129 0 15.8037 0.427734 23.9346 1.30762c74.4258 8.59766 140.648 62.9492 163.105 134.48zM312.961 514.238c12.459 -21.0615 17.6914 -45.7207 17.6914 -70.5078
c0 -19.0654 -3.0957 -38.207 -8.37891 -55.8438c-12.2158 -36.2529 -48.7148 -62.0576 -86.7578 -62.0576c-2.74805 0 -5.50293 0.133789 -8.25781 0.40918c-63.1748 5.73145 -88.6924 59.2207 -88.6924 114.441c0 15.8779 2.10938 31.8994 6.04004 46.9688
c11.5283 44.7764 50.9873 69.3955 90.6895 69.3955c29.5664 0 59.2666 -13.6543 77.666 -42.8057zM259.891 213.605l-32.0117 -80.1133h-79.9453l59.957 80.1133h52z" />
</svg>
