<?xml version="1.0" standalone="no"?>
<!DOCTYPE svg PUBLIC "-//W3C//DTD SVG 1.1//EN" "http://www.w3.org/Graphics/SVG/1.1/DTD/svg11.dtd" >
<svg xmlns="http://www.w3.org/2000/svg" xmlns:xlink="http://www.w3.org/1999/xlink" version="1.1" viewBox="-10 0 342 1000">
   <path fill="currentColor"
d="M292.543 577.582h17.1094l-26.082 68.0859h-13.8906c-0.664062 0.0146484 -1.32812 0.0224609 -1.99219 0.0224609c-22.3877 0 -44.5244 -8.54297 -61.0117 -23.7334l-1.01953 -1.01562l-1.69141 1.1875c-20.9062 18.0928 -48.666 27.0938 -76.2979 27.0938
c-39.7275 0 -79.1914 -18.6064 -97.6475 -55.5508c-6.62891 -13.2715 -10.0195 -28.165 -10.0195 -43.0264c0 -16.8125 4.33887 -33.585 13.2383 -47.9229c13.1836 -19.4375 35.9062 -29.6406 58.2656 -34.5547l90.1055 -19.3047v-0.511719
c-0.618164 -20.6973 -22.9404 -22.7393 -40.1211 -22.7393c-1.7041 0 -3.35742 0.0195312 -4.93359 0.0439453c-26.5195 1.17188 -52.4922 12.7188 -70.9648 31.8438l-1.35547 1.35547l-41.4961 -63.3438l2.71094 -2.20312
c36.1416 -29.7979 82.7646 -45.8896 129.431 -45.8896c15.0039 0 30.0127 1.66309 44.6787 5.06934c26.8047 6.41016 56.5703 16.3164 70.1211 42.3438c7.93359 10.6982 9.73633 41.3369 9.73633 74.2676c0 27.4316 -1.25098 56.4521 -1.25098 76.8604
c0 9.23047 0.255859 16.6992 0.999023 21.4619c1.39746 5.71387 7.13477 10.166 13.0244 10.166c0.118164 0 0.236328 -0.00195312 0.354492 -0.00585938zM186.52 542.523v-22.8633l-53.8594 9.48438c-7.69141 2.08594 -16.1602 5.87109 -19.6484 13.3789
c-1.18555 2.31738 -1.74512 4.89551 -1.74512 7.4873c0 5.80371 2.80566 11.6787 7.6748 14.8682c7.95703 5.21777 17.5518 7.93457 27.1436 7.93457c7.0957 0 14.1904 -1.48633 20.6182 -4.54785c10.1709 -4.44727 19.8447 -13.0625 19.8447 -24.6475
c0 -0.362305 -0.00878906 -0.726562 -0.0283203 -1.09473zM191.262 301.508l-32.0117 -79.9414h-79.9414l59.9531 79.9414h52z" />
</svg>
