<?xml version="1.0" standalone="no"?>
<!DOCTYPE svg PUBLIC "-//W3C//DTD SVG 1.1//EN" "http://www.w3.org/Graphics/SVG/1.1/DTD/svg11.dtd" >
<svg xmlns="http://www.w3.org/2000/svg" xmlns:xlink="http://www.w3.org/1999/xlink" version="1.1" viewBox="-10 0 326 1000">
   <path fill="currentColor"
d="M298.078 442.594l-81.9766 28.9648l-0.507812 -2.375c-3.72754 -27.4805 -26.6133 -47.6836 -52.2959 -47.6836c-6.80469 0 -13.8066 1.41895 -20.7002 4.49609c-29.0742 11.3877 -34.5557 45.8369 -34.5557 73.6475c0 16.4492 3.2666 57.1523 34.5557 69.6416
c6.89453 2.98047 13.8672 4.3584 20.6309 4.3584c25.7441 0 48.4648 -19.9648 52.3652 -47.5498l0.507812 -2.53906l81.9766 29.1289l-0.679688 2.20312c-14.3516 43.5156 -52.2188 78.5625 -97.0469 88.582l-2.20312 0.675781l-16.0898 65.5469h-71.9805l16.0898 -65.207
l-2.54297 -0.675781c-44.2617 -13.7617 -80.3086 -49.7695 -94.168 -94.0039c-4.88477 -16.9443 -7.45605 -34.8857 -7.45605 -52.8223c0 -39.7471 12.623 -79.4688 40.6514 -108.248c27.9131 -29.3086 64.4189 -42.9873 100.619 -42.9873
c57.1152 0 113.473 34.0488 134.127 94.4756z" />
</svg>
