<?xml version="1.0" standalone="no"?>
<!DOCTYPE svg PUBLIC "-//W3C//DTD SVG 1.1//EN" "http://www.w3.org/Graphics/SVG/1.1/DTD/svg11.dtd" >
<svg xmlns="http://www.w3.org/2000/svg" xmlns:xlink="http://www.w3.org/1999/xlink" version="1.1" viewBox="-10 0 330 1000">
   <path fill="currentColor"
d="M275.137 401.438c22.5586 28.1348 29.4404 63.9473 29.4404 99.2783c0 6.51562 -0.234375 13.0156 -0.647461 19.4482l-0.507812 5.42188h-191.219l0.167969 0.847656c6.25488 30.8799 28.1221 42.8252 52.8672 42.8252c25.4473 0 53.9375 -12.6328 71.6211 -30.2939
l1.35156 -1.35156l61.9922 61.9883l-2.87891 2.37109c-36.6104 28.5879 -84.4824 47.6787 -131.655 47.6787c-20.0625 0 -39.998 -3.45312 -58.8877 -11.0967c-52.7637 -21.4424 -86.6006 -75.9834 -86.6006 -132.299c0 -1.29004 0.0175781 -2.58105 0.0537109 -3.87305
l-0.171875 -5.08203v-5.25c-0.0400391 -1.36426 -0.0605469 -2.72754 -0.0605469 -4.08984c0 -49.4053 26.4658 -97.5195 69.334 -122.598c21.7412 -13.3174 46.7705 -19.707 71.8125 -19.707c43.8057 0 87.6475 19.5537 113.988 55.7812zM114.234 459.531h100.098
l-0.339844 -0.847656c-6.45801 -26.0029 -28.0713 -39.0137 -49.7129 -39.0137c-21.6328 0 -43.2939 13 -49.877 39.0137zM136.254 301.508l32.0078 -79.9414h79.9453l-59.957 79.9414h-51.9961z" />
</svg>
