<?xml version="1.0" standalone="no"?>
<!DOCTYPE svg PUBLIC "-//W3C//DTD SVG 1.1//EN" "http://www.w3.org/Graphics/SVG/1.1/DTD/svg11.dtd" >
<svg xmlns="http://www.w3.org/2000/svg" xmlns:xlink="http://www.w3.org/1999/xlink" version="1.1" viewBox="-11 0 251 1000">
   <path fill="currentColor"
d="M43.8301 305.574c-0.21875 0.00292969 -0.436523 0.00488281 -0.654297 0.00488281c-24.6406 0 -43.4268 -21.5781 -43.4268 -44.4463c0 -6.3457 1.44727 -12.791 4.61621 -18.9023c7.67383 -16.3555 23.5186 -24.4971 39.4014 -24.4971
c15.9307 0 31.8994 8.19141 39.6963 24.4971c3.0625 6.11035 4.46484 12.5244 4.46484 18.8281c0 22.9912 -18.6582 44.5195 -43.4873 44.5195c-0.203125 0 -0.40625 -0.000976562 -0.610352 -0.00390625zM185.932 305.574
c-0.208984 0.00292969 -0.416992 0.00488281 -0.625 0.00488281c-24.8184 0 -43.4844 -21.5303 -43.4844 -44.5127c0 -6.30762 1.40625 -12.7246 4.47656 -18.8359c7.80273 -16.3252 23.7373 -24.501 39.6436 -24.501c15.8887 0 31.751 8.1582 39.4541 24.501
c3.16016 6.11426 4.60352 12.5566 4.60352 18.8975c0 22.8877 -18.7969 44.4512 -43.4492 44.4512c-0.206055 0 -0.412109 -0.00195312 -0.619141 -0.00488281zM67.7754 641.773v-292.332h94.168v292.332h-94.168z" />
</svg>
