<?xml version="1.0" standalone="no"?>
<!DOCTYPE svg PUBLIC "-//W3C//DTD SVG 1.1//EN" "http://www.w3.org/Graphics/SVG/1.1/DTD/svg11.dtd" >
<svg xmlns="http://www.w3.org/2000/svg" xmlns:xlink="http://www.w3.org/1999/xlink" version="1.1" viewBox="-10 0 362 1000">
   <path fill="currentColor"
d="M130.137 479.516v162.09h-92.1367v-291.996h84.1758l3.89844 15.582l1.85938 -1.18359c19.9414 -12.1035 41.4033 -17.6064 62.4141 -17.6064c63.9551 0 123.729 50.9873 123.729 122.009c0 0.257812 0 0.515625 -0.00195312 0.773438v172.422h-91.9688v-162.09
c0.00585938 -0.280273 0.00878906 -0.561523 0.00878906 -0.84082c0 -23.9404 -21.043 -45.0713 -45.0098 -45.0713c-0.355469 0 -0.711914 0.00390625 -1.06934 0.0136719c-0.310547 -0.00683594 -0.620117 -0.0107422 -0.929688 -0.0107422
c-23.9062 0 -44.9795 21.0732 -44.9795 44.9795c0 0.30957 0.00390625 0.619141 0.0107422 0.929688zM82.0352 301.68v-44.207h181.059v44.207h-181.059z" />
</svg>
