<?xml version="1.0" standalone="no"?>
<!DOCTYPE svg PUBLIC "-//W3C//DTD SVG 1.1//EN" "http://www.w3.org/Graphics/SVG/1.1/DTD/svg11.dtd" >
<svg xmlns="http://www.w3.org/2000/svg" xmlns:xlink="http://www.w3.org/1999/xlink" version="1.1" viewBox="-10 0 346 1000">
   <path fill="currentColor"
d="M250.859 366.715c44.6475 29.792 65.8018 78.8389 65.8018 127.781c0 66.8838 -39.5059 133.573 -112.548 150.664c-12.542 3.03809 -24.8418 4.47559 -36.7637 4.47559c-82.8184 0 -147.349 -69.3594 -147.349 -153.172c0 -9.16992 0.772461 -18.5127 2.37793 -27.9561
c10.2002 -76.6152 77.3506 -127.063 147.33 -127.063c27.7275 0 55.9004 7.91992 81.1504 25.2705zM225.117 524.062c1.91602 -9.76758 3.27148 -20.3662 3.27148 -30.9248c0 -18.6143 -4.21289 -37.1055 -16.9941 -50.7119
c-11.6797 -12.8164 -27.0215 -18.6426 -42.2334 -18.6426c-27.2705 0 -54.124 18.7246 -58.708 49.4668c-1.22559 7.73438 -1.89453 15.4941 -1.89453 23.0605c0 36.3398 15.4385 68.208 58.8008 71.2793c0.455078 0.0117188 0.90918 0.0175781 1.36328 0.0175781
c25.7314 0 50.1797 -18.3877 56.3945 -43.5449zM142.477 301.508l32.0117 -79.9414h79.9414l-59.957 79.9414h-51.9961z" />
</svg>
