<?xml version="1.0" standalone="no"?>
<!DOCTYPE svg PUBLIC "-//W3C//DTD SVG 1.1//EN" "http://www.w3.org/Graphics/SVG/1.1/DTD/svg11.dtd" >
<svg xmlns="http://www.w3.org/2000/svg" xmlns:xlink="http://www.w3.org/1999/xlink" version="1.1" viewBox="-10 0 362 1000">
   <path fill="currentColor"
d="M40 533.547v-183.938h92.1367v162.938c1.12402 29.873 23.0469 44.833 44.9707 44.833c21.9004 0 43.8018 -14.9287 44.9668 -44.833v-162.938h91.9688v291.996h-77.9141l-7.95703 -15.9219l-2.03516 1.1875c-22.0488 14.1348 -46.1582 20.6963 -69.4961 20.6963
c-60.3203 0 -115.491 -43.832 -116.641 -114.021zM106.055 305.574c-0.21875 0.00292969 -0.436523 0.00488281 -0.654297 0.00488281c-24.6406 0 -43.4268 -21.5781 -43.4268 -44.4463c0 -6.3457 1.44727 -12.791 4.61621 -18.9023
c7.67383 -16.3555 23.5186 -24.4971 39.4014 -24.4971c15.9307 0 31.8994 8.19141 39.6963 24.4971c3.0625 6.11035 4.46484 12.5244 4.46484 18.8281c0 22.9912 -18.6582 44.5195 -43.4873 44.5195c-0.203125 0 -0.40625 -0.000976562 -0.610352 -0.00390625z
M248.156 305.574c-0.208984 0.00292969 -0.416992 0.00488281 -0.625 0.00488281c-24.8184 0 -43.4844 -21.5303 -43.4844 -44.5127c0 -6.30762 1.40625 -12.7246 4.47656 -18.8359c7.80273 -16.3252 23.7373 -24.501 39.6436 -24.501
c15.8887 0 31.751 8.1582 39.4541 24.501c3.16016 6.11426 4.60352 12.5566 4.60352 18.8975c0 22.8877 -18.7969 44.4512 -43.4492 44.4512c-0.206055 0 -0.412109 -0.00195312 -0.619141 -0.00488281z" />
</svg>
