<?xml version="1.0" standalone="no"?>
<!DOCTYPE svg PUBLIC "-//W3C//DTD SVG 1.1//EN" "http://www.w3.org/Graphics/SVG/1.1/DTD/svg11.dtd" >
<svg xmlns="http://www.w3.org/2000/svg" xmlns:xlink="http://www.w3.org/1999/xlink" version="1.1" viewBox="-10 0 386 1000">
   <path fill="currentColor"
d="M250.09 233.59h84.0078l-204.09 415.977h-84.0078zM158.801 364.516c-12.375 16.3027 -30.3691 23.8906 -48.2549 23.8906c-26.0771 0 -51.9258 -16.1289 -59.8037 -44.8945c-2.88184 -10.3516 -4.40918 -21.4238 -4.40918 -32.3994
c0 -38.0049 18.3164 -74.8564 62.167 -76.6748c0.69043 -0.0253906 1.37891 -0.0380859 2.06738 -0.0380859c25.9961 0 50.6328 18.0332 58.0576 43.0576c3.17578 11.2852 5.06445 23.5117 5.06445 35.6943c0 18.3408 -4.2793 36.582 -14.8887 51.3643zM85.4648 283.047
c-3.24512 8.17285 -4.34668 17.1113 -4.34668 26.124c0 7.81445 0.828125 15.6846 1.80371 23.1611c2.04102 13.7803 14.7188 22.8662 27.5732 22.8662c5.37207 0 10.7754 -1.58691 15.4463 -5.08105c5.88672 -4.17578 9.9375 -10.6836 11.1797 -17.7852
c1.0459 -7.26562 1.76855 -14.7969 1.76855 -22.2969c0 -8.80273 -0.995117 -17.5625 -3.63184 -25.8008c-4.66992 -10.7959 -15.0498 -16.3408 -25.3926 -16.3408c-9.79102 0 -19.5488 4.96777 -24.4004 15.1533zM268.383 494.422
c0.655273 -0.0224609 1.31055 -0.0341797 1.96484 -0.0341797c26.0889 0 50.7871 17.9521 58.332 43.0537c3.12891 11.3447 5.01855 23.6309 5.01855 35.8643c0 18.2842 -4.22168 36.4531 -14.8428 51.1904c-12.3301 16.3438 -30.333 23.9453 -48.2422 23.9453
c-26.0625 0 -51.9258 -16.0977 -59.8164 -44.7773c-2.87598 -10.4199 -4.40625 -21.543 -4.40625 -32.5557c0 -37.9404 18.1602 -74.5762 61.9922 -76.6865zM297.176 592.316c1.06348 -7.18066 1.76367 -14.6025 1.76367 -21.999
c0 -8.71094 -0.970703 -17.3857 -3.45898 -25.5908c-4.63574 -11.0918 -15.126 -16.7783 -25.5791 -16.7783c-9.75488 0 -19.4775 4.95215 -24.3818 15.083c-3.24805 8.21387 -4.37109 17.2305 -4.37109 26.3232c0 7.74902 0.816406 15.5527 1.82812 22.9619
c1.92871 13.8154 14.6406 22.9111 27.5605 22.9111c5.24219 0 10.5195 -1.49805 15.123 -4.78613c6.03906 -4.29297 10.2734 -10.8828 11.5156 -18.125z" />
</svg>
