<?xml version="1.0" standalone="no"?>
<!DOCTYPE svg PUBLIC "-//W3C//DTD SVG 1.1//EN" "http://www.w3.org/Graphics/SVG/1.1/DTD/svg11.dtd" >
<svg xmlns="http://www.w3.org/2000/svg" xmlns:xlink="http://www.w3.org/1999/xlink" version="1.1" viewBox="-10 0 186 1000">
   <path fill="currentColor"
d="M43.9453 237.402c7.33008 -2.9248 14.5527 -4.25293 21.4736 -4.25293c31.958 0 57.4863 28.3154 57.4863 58.5469c0 12.7041 -4.50781 25.7461 -14.9404 37.167c-15.874 19.1914 -40.498 30.499 -65.3545 30.499c-0.516602 0 -1.03223 -0.00488281 -1.54785 -0.0146484
c-6.06641 -0.632812 -9.59375 -5.96875 -11.3477 -12.0234c-0.730469 -2.52734 -1.11328 -5.25 -1.36719 -7.89062c-0.308594 -3.21875 -0.464844 -6.29297 -0.496094 -9.38672c0.566406 -4.17578 2.99219 -6.75781 6.60938 -7.96094
c7.41016 -0.746094 14.6914 -2.96094 21.5078 -5.92578v-0.171875h0.339844v-0.167969h0.167969l0.167969 -0.167969v-0.171875h0.171875l0.167969 -0.167969v-0.167969h0.171875v-0.171875h0.167969v-0.167969l0.167969 -0.171875v-0.167969l0.171875 -0.167969v-0.339844
h0.167969v-0.507812h0.167969v-1.69531h-0.167969v-0.503906l-0.167969 -0.171875v-0.339844h-0.171875v-0.167969l-0.167969 -0.167969v-0.171875h-0.167969v-0.167969l-0.679688 -0.679688h-0.167969v-0.167969h-0.171875v-0.167969h-0.335938v-0.167969h-0.339844
l-0.167969 -0.171875h-0.339844l-0.171875 -0.167969c-0.746094 0 -1.66406 0.0703125 -2.37109 -0.171875c-0.816406 0.101562 -1.73438 -0.195312 -2.53906 -0.167969c-0.550781 -0.113281 -1.28516 -0.4375 -1.86328 -0.339844
c-1.21094 -0.308594 -2.51172 -0.703125 -3.72656 -1.01562c-1.36719 -0.421875 -2.83594 -0.957031 -4.0625 -1.69531c-13.5674 -5.52051 -21.2197 -19.6475 -21.2197 -33.6484c0 -9.04102 3.19043 -18.0293 10.04 -24.6133
c3.91016 -4.41797 9.61328 -7.32422 14.9062 -9.48438z" />
</svg>
