<?xml version="1.0" standalone="no"?>
<!DOCTYPE svg PUBLIC "-//W3C//DTD SVG 1.1//EN" "http://www.w3.org/Graphics/SVG/1.1/DTD/svg11.dtd" >
<svg xmlns="http://www.w3.org/2000/svg" xmlns:xlink="http://www.w3.org/1999/xlink" version="1.1" viewBox="-10 0 182 1000">
   <path fill="currentColor"
d="M41.9453 569.285c7.33105 -2.92578 14.5547 -4.25391 21.4766 -4.25391c31.9561 0 57.4834 28.3145 57.4834 58.5439c0 12.7041 -4.50781 25.7461 -14.9404 37.167c-15.874 19.1953 -40.498 30.5029 -65.3545 30.5029
c-0.516602 0 -1.03223 -0.00488281 -1.54785 -0.0146484c-6.06641 -0.636719 -9.59375 -5.96875 -11.3477 -12.0234c-0.730469 -2.52734 -1.11328 -5.25391 -1.36719 -7.89062c-0.308594 -3.21875 -0.464844 -6.29688 -0.496094 -9.38672
c0.566406 -4.17969 2.99219 -6.76172 6.60938 -7.96094c7.41016 -0.746094 14.6914 -2.96484 21.5078 -5.92578v-0.171875h0.339844v-0.167969h0.167969l0.167969 -0.171875v-0.167969h0.171875l0.167969 -0.167969v-0.171875h0.171875v-0.167969h0.167969v-0.167969
l0.167969 -0.171875v-0.167969l0.171875 -0.167969v-0.339844h0.167969v-0.507812h0.167969v-1.69531h-0.167969v-0.507812l-0.167969 -0.167969v-0.339844h-0.171875v-0.167969l-0.167969 -0.171875v-0.167969h-0.167969v-0.167969l-0.679688 -0.679688h-0.167969
v-0.167969h-0.171875v-0.171875h-0.335938v-0.167969h-0.339844l-0.167969 -0.167969h-0.339844l-0.171875 -0.171875c-0.746094 0 -1.66406 0.0703125 -2.37109 -0.167969c-0.816406 0.0976562 -1.73438 -0.199219 -2.53906 -0.171875
c-0.550781 -0.109375 -1.28516 -0.433594 -1.86328 -0.335938c-1.21094 -0.3125 -2.51172 -0.707031 -3.72656 -1.01562c-1.36719 -0.425781 -2.83594 -0.960938 -4.0625 -1.69531c-13.5674 -5.52344 -21.2197 -19.6494 -21.2197 -33.6494
c0 -9.04102 3.19043 -18.0283 10.04 -24.6123c3.91016 -4.41797 9.61328 -7.32812 14.9062 -9.48438z" />
</svg>
