<?xml version="1.0" standalone="no"?>
<!DOCTYPE svg PUBLIC "-//W3C//DTD SVG 1.1//EN" "http://www.w3.org/Graphics/SVG/1.1/DTD/svg11.dtd" >
<svg xmlns="http://www.w3.org/2000/svg" xmlns:xlink="http://www.w3.org/1999/xlink" version="1.1" viewBox="-10 0 426 1000">
   <path fill="currentColor"
d="M367.402 349.27c8.43555 29.9619 13.501 63.1553 13.501 96.3574c0 50.0068 -11.4902 100.032 -40.2627 139.068c-33.585 44.1562 -82.252 64.7285 -130.562 64.7285c-70.3184 0 -139.884 -43.584 -161.094 -121.467
c-7.68652 -28.665 -11.9854 -59.0098 -11.9854 -89.2979c0 -41.1152 7.92188 -82.126 26.0439 -118.69c27.6523 -52.4453 85.2773 -86.7305 144.473 -86.8867c1.03418 -0.0214844 2.06738 -0.0322266 3.09961 -0.0322266c70.2559 0 136.38 48.9004 156.787 116.22z
M283.902 485.785c1.46973 -14.127 2.89844 -31.9424 2.89844 -50.335c0 -30.5264 -3.93457 -62.6406 -18.1406 -82.1143c-13.8643 -19.0303 -36.9229 -30.1367 -60.1719 -30.1367c-6.5293 0 -13.0732 0.876953 -19.4336 2.69922
c-24.3047 6.71875 -44.2461 26.2656 -51.3164 50.4727c-4.62891 20.7666 -6.67383 42.1162 -6.67383 63.4922c0 19.376 1.67969 38.7725 4.63867 57.7773c8.83984 41.792 40.709 61.7549 72.6641 61.7549c36.0674 0 72.2422 -25.4307 75.5352 -73.6104z" />
</svg>
