<?xml version="1.0" standalone="no"?>
<!DOCTYPE svg PUBLIC "-//W3C//DTD SVG 1.1//EN" "http://www.w3.org/Graphics/SVG/1.1/DTD/svg11.dtd" >
<svg xmlns="http://www.w3.org/2000/svg" xmlns:xlink="http://www.w3.org/1999/xlink" version="1.1" viewBox="-10 0 366 1000">
   <path fill="currentColor"
d="M27.668 641.605v-67.918c-0.0429688 -4.57422 1.66406 -9.14453 4.57422 -12.7031c44.7109 -41.4805 157.992 -102.016 185.289 -158.531c3.75391 -8.79102 5.86328 -18.8721 5.86328 -28.8311c0 -18.5 -7.28027 -36.5791 -24.832 -45.1846
c-9.75391 -4.27637 -20.7422 -6.82129 -31.6045 -6.82129c-5.29883 0 -10.5684 0.606445 -15.6494 1.91113c-27.4658 7.33984 -42.5039 36.085 -42.5039 63.3535c0 3.30664 0.220703 6.5918 0.667969 9.81445l0.171875 1.35547h-96.375l-0.335938 -2.87891
c-0.618164 -5.90918 -0.932617 -11.9229 -0.932617 -17.9805c0 -43.2959 16.0303 -88.8535 51.4014 -114.809c29.3525 -19.1211 64.8193 -28.8652 100.217 -28.8652c34.4443 0 68.8232 9.22656 97.4395 28.0215c39.1211 24.0762 58.6797 69.1377 58.6797 113.997
c0 11.417 -1.26758 22.8203 -3.80078 33.8623c-8.1875 38.7266 -33.6797 70.5273 -63.8555 95.0156l-62.4961 53.1836h128.043v84.0078h-289.961z" />
</svg>
