<?xml version="1.0" standalone="no"?>
<!DOCTYPE svg PUBLIC "-//W3C//DTD SVG 1.1//EN" "http://www.w3.org/Graphics/SVG/1.1/DTD/svg11.dtd" >
<svg xmlns="http://www.w3.org/2000/svg" xmlns:xlink="http://www.w3.org/1999/xlink" version="1.1" viewBox="-10 0 398 1000">
   <path fill="currentColor"
d="M26 522.367l95.6953 -13.5508v0.847656c-0.000976562 0.115234 -0.000976562 0.231445 -0.000976562 0.34668c0 20.4824 13.7568 39.9355 32.8564 47.0791c9.6377 3.17871 20.2256 5.09277 30.7256 5.09277c14.3486 0 28.5322 -3.57422 39.9033 -12.3779
c9.48535 -7.57031 14.2529 -19.1621 14.2529 -30.7539c0 -10.9883 -4.28418 -21.9775 -12.8975 -29.5391c-10.6582 -9.44922 -24.4258 -11.1406 -38.4629 -11.1406c-7.8291 0 -15.7422 0.526367 -23.2461 0.526367c-1.34961 0 -2.68555 -0.0175781 -4.00586 -0.0576172
l-6.77344 0.339844v-83.1641l2.03125 0.171875c4.47168 0.540039 9.66699 0.865234 15.2217 0.865234c24.9316 0 57.1143 -6.54102 63.7041 -29.4902c0.833008 -3.02734 1.22754 -6.11719 1.22754 -9.19629c0 -14.2998 -8.52734 -28.376 -21.3838 -35.0068
c-8.95508 -4.09277 -19.332 -6.09863 -29.8506 -6.09863c-31.3193 0 -63.8916 17.79 -63.8916 51.2695c0 0.963867 0.0273438 1.94043 0.0820312 2.93066v0.84375l-94.3398 -9.14453v-2.20312c2.25781 -68.7773 57.6992 -115.707 123.133 -124.488
c12.2363 -2.1123 24.9893 -3.24805 37.8232 -3.24805c51.7246 0 104.759 18.4463 130.528 65.748c10.2246 17.2275 15.9004 37.2373 15.9004 57.207c0 11.3789 -1.84277 22.7441 -5.73633 33.5742c-6.73047 19.6758 -19.7891 38.3359 -39.8008 45.8984l-1.01953 0.339844
l1.1875 0.339844c37.0625 11.0996 50.6943 45.251 50.6943 80.418c0 16.5264 -3.01074 33.2773 -8.01465 47.9648c-19.9814 61.459 -82.0088 85.4561 -143.267 85.4561c-24.0195 0 -47.9219 -3.68945 -69.124 -10.2568c-52.1641 -14.168 -86.375 -61.8906 -92.6445 -114.324
z" />
</svg>
