<?xml version="1.0" standalone="no"?>
<!DOCTYPE svg PUBLIC "-//W3C//DTD SVG 1.1//EN" "http://www.w3.org/Graphics/SVG/1.1/DTD/svg11.dtd" >
<svg xmlns="http://www.w3.org/2000/svg" xmlns:xlink="http://www.w3.org/1999/xlink" version="1.1" viewBox="-10 0 386 1000">
   <path fill="currentColor"
d="M40 539.137l90.4453 -27.1016l0.167969 1.01562c6.91797 32.3652 32.9561 48.373 58.9746 48.373c26.7998 0 53.5791 -16.9844 59.416 -50.5723c0.894531 -4.63672 1.31641 -9.11914 1.31641 -13.4277c0 -36.249 -29.9287 -60.1602 -60.7852 -60.1602
c-18.8418 0 -38.0303 8.91504 -50.9609 29.3809l-0.507812 1.01562l-93.3242 -13.2109l25.2383 -212.898h256.086v84.0078h-174.113l-5.92578 37.9414l2.70703 -0.847656c16.999 -5.92285 35.4287 -8.93066 53.9355 -8.93066c44.375 0 89.1904 17.291 115.775 53.1377
c19.248 27.373 29.625 61.1621 29.625 94.6543c0 32.4736 -9.75586 64.668 -30.6406 90.4668c-28.8799 39.0693 -76.7568 57.7402 -124.82 57.7402c-68.374 0 -137.125 -37.7852 -152.102 -108.385z" />
</svg>
