<?xml version="1.0" standalone="no"?>
<!DOCTYPE svg PUBLIC "-//W3C//DTD SVG 1.1//EN" "http://www.w3.org/Graphics/SVG/1.1/DTD/svg11.dtd" >
<svg xmlns="http://www.w3.org/2000/svg" xmlns:xlink="http://www.w3.org/1999/xlink" version="1.1" viewBox="-10 0 378 1000">
   <path fill="currentColor"
d="M319.434 438.359c9.60352 20.2949 14.3262 43.248 14.3262 66.335c0 54.7832 -26.5928 110.315 -77.6699 132.845c-20.4082 8.17773 -42.6777 12.3955 -64.915 12.3955c-22.0869 0 -44.1436 -4.16113 -64.3154 -12.7354
c-71.7598 -32.4258 -96.8574 -115.884 -96.8574 -195.756c0 -34.2949 4.62695 -67.9277 12.1738 -96.5762c11.6992 -39.3906 37.0195 -78.1211 75.0273 -96.0312c21.5352 -10.4316 45.6562 -15.5039 69.8516 -15.5039c57.9805 0 116.389 29.125 140.676 83.418
l0.847656 2.03516l-84.0078 35.5664l-0.167969 -0.675781c-6.82031 -20.2969 -28.2578 -30.7422 -48.6094 -31.6719c-1.6748 -0.145508 -3.34668 -0.216797 -5.01074 -0.216797c-32.0459 0 -61.5605 26.4482 -64.4307 58.6465l-0.171875 1.1875l2.03516 -1.35547
c22.1904 -14.1426 47.0859 -20.8789 71.6104 -20.8789c50.2236 0 98.8955 28.2471 119.608 78.9727zM218.996 552.18c16.9102 -10.7539 24.9219 -29.3574 24.9219 -48.0039c0 -25.0889 -14.5029 -50.2568 -41.3516 -56.5
c-4.87402 -1.25391 -9.6543 -1.84473 -14.2812 -1.84473c-30.7969 0 -54.8428 26.1777 -54.8428 57.4365c0 3.38086 0.28125 6.82129 0.866211 10.2949c3.42383 28.5723 28.8301 47.7559 55.0977 47.7559c10.1396 0 20.4082 -2.8584 29.5898 -9.13867z" />
</svg>
