<?xml version="1.0" standalone="no"?>
<!DOCTYPE svg PUBLIC "-//W3C//DTD SVG 1.1//EN" "http://www.w3.org/Graphics/SVG/1.1/DTD/svg11.dtd" >
<svg xmlns="http://www.w3.org/2000/svg" xmlns:xlink="http://www.w3.org/1999/xlink" version="1.1" viewBox="-10 0 406 1000">
   <path fill="currentColor"
d="M294.793 431.754c41.542 9.42188 60.9033 48.542 60.9033 88.3633c0 22.4043 -6.12891 45.0303 -17.8838 62.7148c-28.3271 44.3779 -83.5742 66.5205 -138.863 66.5205c-55.3691 0 -110.78 -22.2061 -139.242 -66.5205
c-11.6162 -17.7529 -17.7051 -40.3896 -17.7051 -62.7832c0 -39.8086 19.2441 -78.8447 60.8965 -88.2949l1.18359 -0.167969l-1.35547 -0.339844c-35.2666 -11.4268 -51.8789 -45.7002 -51.8789 -80.5752c0 -20.2979 5.62695 -40.7998 16.4805 -57.1201
c25.9404 -40.1318 78.6426 -60.1787 131.388 -60.1787c53.4414 0 106.927 20.5801 132.663 61.7021c10.1191 16.0801 15.3867 35.9707 15.3867 55.6631c0 34.9092 -16.5537 69.1924 -51.9727 80.5088l-1.18359 0.339844zM149.305 342.328
c-1.73242 4.14648 -2.54297 8.54004 -2.54297 12.9316c0 14.7139 9.10645 29.4004 23.207 34.6621c8.94531 3.58105 19.5781 5.6709 30.1875 5.6709c18.8359 0 37.5967 -6.58691 46.707 -23.1162c2.65332 -5.13477 3.92285 -10.833 3.92285 -16.5332
c0 -12.8213 -6.42383 -25.6484 -17.9814 -32.0762c-9.67969 -5.31836 -22.4014 -8.33203 -35.0938 -8.33203c-20.584 0 -41.0898 7.92578 -48.4062 26.793zM231.449 557.09c18.1689 -5.40723 28.3486 -22.1318 28.3486 -38.9238
c0 -11.6055 -4.8623 -23.2422 -15.3096 -31.1973c-12.3867 -8.3623 -27.8652 -11.5449 -43.4521 -11.5449c-11.7969 0 -23.6572 1.82324 -34.2861 4.60352c-17.666 4.48535 -29.002 21.8887 -29.002 39.2432c0 7.15918 1.92871 14.3096 6.13867 20.542
c10.207 16.5156 31.4209 21.9336 52.3906 21.9336c12.6318 0 25.1758 -1.96582 35.1719 -4.65625z" />
</svg>
