<?xml version="1.0" standalone="no"?>
<!DOCTYPE svg PUBLIC "-//W3C//DTD SVG 1.1//EN" "http://www.w3.org/Graphics/SVG/1.1/DTD/svg11.dtd" >
<svg xmlns="http://www.w3.org/2000/svg" xmlns:xlink="http://www.w3.org/1999/xlink" version="1.1" viewBox="-10 0 378 1000">
   <path fill="currentColor"
d="M242.938 245.957c71.7754 32.5059 96.8398 115.886 96.8398 195.731c0 34.2881 -4.62207 67.9248 -12.1523 96.6006c-11.7148 39.3789 -37.0352 78.1211 -75.0312 96.0312c-21.54 10.4238 -45.6719 15.4951 -69.8799 15.4951
c-57.9756 0 -116.384 -29.0879 -140.647 -83.4092l-0.847656 -2.03516l84.0078 -35.5664l0.171875 0.675781c6.74219 20.3242 28.3125 30.7578 48.6055 31.6719c1.67383 0.145508 3.34473 0.216797 5.00781 0.216797c32.0625 0 61.4961 -26.4834 64.4336 -58.6465
l0.171875 -1.1875l-2.03516 1.35547c-22.1816 14.1377 -47.0811 20.8721 -71.6133 20.8721c-50.2393 0 -98.9385 -28.2402 -119.602 -78.9658c-9.63281 -20.2705 -14.3662 -43.2197 -14.3662 -66.3096c0 -54.791 26.6494 -110.38 77.71 -132.87
c20.4023 -8.18359 42.6611 -12.4014 64.8916 -12.4014c22.0908 0 44.1523 4.16504 64.335 12.7412zM167.23 435.48c4.87695 1.25 9.65723 1.83887 14.2832 1.83887c30.8496 0 54.8115 -26.2148 54.8115 -57.5537c0 -3.33984 -0.272461 -6.7373 -0.836914 -10.168
c-3.55176 -28.667 -28.8115 -47.7354 -55.0889 -47.7354c-10.1699 0 -20.4922 2.85645 -29.7666 9.11816c-16.7822 10.8887 -24.7529 29.4795 -24.7529 48.0801c0 25.0625 14.4697 50.1416 41.3506 56.4199z" />
</svg>
