<?xml version="1.0" standalone="no"?>
<!DOCTYPE svg PUBLIC "-//W3C//DTD SVG 1.1//EN" "http://www.w3.org/Graphics/SVG/1.1/DTD/svg11.dtd" >
<svg xmlns="http://www.w3.org/2000/svg" xmlns:xlink="http://www.w3.org/1999/xlink" version="1.1" viewBox="-10 0 434 1000">
   <path fill="currentColor"
d="M329.637 428.535c37.5361 23.6396 54.5312 60.5117 54.5312 96.9902c0 56.8086 -41.2168 112.659 -110.254 116.08h-213.914v-400.055h193.93c63.1836 2.90332 104.62 55.9658 104.62 110.994c0 25.7568 -9.07812 51.9434 -29.2529 73.6191l-1.35156 1.35547z
M151.969 325.559v71.9844h79.9414c23.8232 -0.634766 35.7441 -18.293 35.7441 -35.9619c0 -17.6602 -11.9102 -35.3311 -35.7441 -36.0225h-79.9414zM243.938 557.598c27.8369 -1.00195 41.7646 -21.5068 41.7646 -42.0098c0 -20.4951 -13.917 -40.9883 -41.7646 -41.998
h-91.9688v84.0078h91.9688z" />
</svg>
