<?xml version="1.0" standalone="no"?>
<!DOCTYPE svg PUBLIC "-//W3C//DTD SVG 1.1//EN" "http://www.w3.org/Graphics/SVG/1.1/DTD/svg11.dtd" >
<svg xmlns="http://www.w3.org/2000/svg" xmlns:xlink="http://www.w3.org/1999/xlink" version="1.1" viewBox="-10 0 446 1000">
   <path fill="currentColor"
d="M408.316 359.602l-88.0742 34.7227l-0.339844 -1.52344c-8.46777 -44.8389 -50.1221 -75.1338 -93.1934 -75.1338c-13.1406 0 -26.4141 2.82031 -38.916 8.90723c-45.0547 20.4072 -57.5928 67.4912 -57.5928 113.174c0 0.610352 0.00195312 1.2207 0.00683594 1.83008
c-0.00390625 0.59082 -0.00585938 1.18262 -0.00585938 1.77441c0 45.7002 12.4883 92.8301 57.5918 113.229c12.5049 6.10645 25.7852 8.93457 38.9355 8.93457c43.0752 0 84.7529 -30.3408 93.1738 -75.1611l0.339844 -1.52344l88.0742 34.7227l-1.1875 3.21875
c-28.6885 76.748 -103.805 122.656 -180.461 122.656c-34.4414 0 -69.1924 -9.2666 -100.184 -29.168c-61.6602 -37.4131 -92.4834 -108.037 -92.4834 -178.665c0 -70.6396 30.834 -141.283 92.4834 -178.702c31.0176 -19.8906 65.7764 -29.1553 100.218 -29.1553
c76.6396 0 151.699 45.8789 180.427 122.644z" />
</svg>
