<?xml version="1.0" standalone="no"?>
<!DOCTYPE svg PUBLIC "-//W3C//DTD SVG 1.1//EN" "http://www.w3.org/Graphics/SVG/1.1/DTD/svg11.dtd" >
<svg xmlns="http://www.w3.org/2000/svg" xmlns:xlink="http://www.w3.org/1999/xlink" version="1.1" viewBox="-10 0 450 1000">
   <path fill="currentColor"
d="M223.949 241.551c0.851562 -0.0107422 1.7002 -0.0166016 2.54688 -0.0166016c108.958 0 181.636 89.0674 181.636 194.093c0 1.97754 -0.0253906 3.96191 -0.0771484 5.95117c0.0507812 1.97559 0.0761719 3.94629 0.0761719 5.91113
c0 105.134 -72.5693 194.132 -181.704 194.132c-0.824219 0 -1.64941 -0.00585938 -2.47754 -0.015625h-163.949v-400.055h163.949zM218.023 557.598c63.624 -0.208008 93.8486 -56.21 93.8486 -113.676c0 -0.78125 -0.00585938 -1.5625 -0.0166016 -2.34375
c0.0107422 -0.768555 0.0166016 -1.53711 0.0166016 -2.30566c0 -57.5049 -30.1719 -113.475 -93.8486 -113.714h-66.0547v232.039h66.0547z" />
</svg>
