<?xml version="1.0" standalone="no"?>
<!DOCTYPE svg PUBLIC "-//W3C//DTD SVG 1.1//EN" "http://www.w3.org/Graphics/SVG/1.1/DTD/svg11.dtd" >
<svg xmlns="http://www.w3.org/2000/svg" xmlns:xlink="http://www.w3.org/1999/xlink" version="1.1" viewBox="-10 0 462 1000">
   <path fill="currentColor"
d="M394.324 333.52l-82.8203 39.9727l-0.679688 -1.52734c-16.1562 -34.7725 -53.8369 -56.5029 -91.2051 -56.5029c-16.9141 0 -33.7646 4.45215 -48.5254 14.1631c-29.4141 18.1914 -41.8633 53.082 -42.6797 86.3789
c-0.00976562 10.1699 -0.331055 21.6338 -0.331055 33.3896c0 20.2549 0.953125 41.377 6.08887 58.2393c13.668 43.377 47.4893 62.7148 82.6787 62.7148c43.2676 0 88.6035 -29.2363 101.087 -78.9727l0.339844 -1.86328h-98.0664v-81.9766h182.074v234.07h-74.0156
l-7.96094 -17.9531l-2.87891 1.69141c-28.0674 16.6592 -59.9854 24.5996 -91.918 24.5996c-58.5391 0 -117.129 -26.6816 -152.145 -75.2402c-27.4521 -36.4092 -39.3672 -83.4844 -39.3672 -130.587c0 -34.2637 6.30469 -68.542 17.5195 -98.7412
c32.1309 -74.8008 100.643 -111.41 170.296 -111.41c65.7422 0 132.501 32.6133 170.646 96.5078z" />
</svg>
