<?xml version="1.0" standalone="no"?>
<!DOCTYPE svg PUBLIC "-//W3C//DTD SVG 1.1//EN" "http://www.w3.org/Graphics/SVG/1.1/DTD/svg11.dtd" >
<svg xmlns="http://www.w3.org/2000/svg" xmlns:xlink="http://www.w3.org/1999/xlink" version="1.1" viewBox="-10 0 395 1000">
   <path fill="currentColor"
d="M374.012 371.289c0.0615234 1.55664 0.0917969 3.10938 0.0917969 4.65918c0 68.9199 -60.5039 129.679 -129.597 129.679c-0.80957 0 -1.62012 -0.00878906 -2.43262 -0.0253906h-86.043v136.004h-96.0312v-400.055h182.074
c0.836914 -0.0175781 1.67285 -0.0263672 2.50684 -0.0263672c68.71 0 129.432 60.3623 129.432 129.195c0 0.19043 0 0.379883 -0.000976562 0.569336zM225.98 425.656c34.5264 -1.49609 51.8027 -26.8086 51.8027 -52.1113
c0 -25.2891 -17.2588 -50.5684 -51.8027 -52.0488h-69.9492v104.16h69.9492z" />
</svg>
