<?xml version="1.0" standalone="no"?>
<!DOCTYPE svg PUBLIC "-//W3C//DTD SVG 1.1//EN" "http://www.w3.org/Graphics/SVG/1.1/DTD/svg11.dtd" >
<svg xmlns="http://www.w3.org/2000/svg" xmlns:xlink="http://www.w3.org/1999/xlink" version="1.1" viewBox="-10 0 482 1000">
   <path fill="currentColor"
d="M330.551 256.285c70.3779 34.7461 106.938 111.148 106.938 187.138c0 63.0723 -25.1875 125.86 -77.1299 164.308l-2.54297 1.86328l22.0195 38.1094l-76.0469 39.9727l-22.6953 -42.5156l-3.55859 0.679688c-13.2861 2.82617 -26.6719 4.18555 -39.9609 4.18555
c-87.4951 0 -170.794 -58.9258 -193.77 -145.947c-5.15723 -19.6396 -7.80273 -40.3242 -7.80273 -61.1191c0 -58.4736 20.918 -117.813 65.7285 -157.201c36.583 -34.3545 86.3789 -52.2422 136.111 -52.2422c32.1221 0 64.2168 7.46191 92.709 22.7695zM310.902 525.418
c18.1797 -22.9092 24.5127 -52.2725 24.5127 -81.4346c0 -12 -1.07227 -23.9648 -2.83301 -35.4326c-3.95312 -27.1562 -17.3906 -52.8164 -39.9727 -68.9336c-16.0283 -12.0039 -35.4014 -17.7549 -54.7969 -17.7549c-27.5361 0 -55.1191 11.5908 -73.2461 33.3369
c-14.2822 16.3604 -26.7842 43.665 -26.7842 89.1465c0 60.8848 32.5635 114.467 98.2607 117.314h1.69141l-16.7695 -30.1445l71.1367 -35.9062l17.7852 31.1641z" />
</svg>
