<?xml version="1.0" standalone="no"?>
<!DOCTYPE svg PUBLIC "-//W3C//DTD SVG 1.1//EN" "http://www.w3.org/Graphics/SVG/1.1/DTD/svg11.dtd" >
<svg xmlns="http://www.w3.org/2000/svg" xmlns:xlink="http://www.w3.org/1999/xlink" version="1.1" viewBox="-10 0 442 1000">
   <path fill="currentColor"
d="M36 578.43l70.6289 -64.5312l1.69141 1.69531c24.4336 25.0664 58.3203 40.4102 93.1562 43.0195c2.94922 0.101562 6.14551 0.169922 9.50586 0.169922c22.3994 0 52.1084 -3.05273 64.8457 -19.8184c4.42773 -5.97754 7.5 -13.5352 7.5 -20.9795
c0 -3.11719 -0.538086 -6.21484 -1.74219 -9.16895c-7.64844 -17.7539 -30.5586 -22.2969 -48.2695 -23.8789c-42.9062 -9.85156 -92.5742 -13.6758 -125.164 -46.4062c-22.7969 -22.2959 -33.5332 -51.4629 -33.5332 -80.4482c0 -43.8398 24.5615 -87.2617 69.0996 -105.86
c29.958 -12.335 62.2139 -18.3574 94.4922 -18.3574c54.4482 0 108.961 17.1377 152.621 50.0293l3.55469 2.53906l-62.1562 65.3789l-2.20312 -1.52344c-24.3291 -16.4775 -58.0273 -28.9502 -89.8105 -28.9502c-14.3887 0 -28.3857 2.55664 -40.9434 8.4541
c-10.1406 4.98145 -17.3604 16.5859 -17.3604 27.8926c0 3.56348 0.716797 7.09766 2.28613 10.3848c4.64453 7.625 14.3672 10.7852 22.6953 13.2109c56.9492 10.5156 125.477 16.8242 162.598 66.9023c16.4199 22.876 23.877 46.875 23.877 69.8916
c0 50.3477 -35.6807 95.9932 -91.2871 114.89c-28.4131 11.2539 -58.707 16.6816 -89.0137 16.6816c-63.665 0 -127.386 -23.9531 -173.85 -68.1699z" />
</svg>
