<?xml version="1.0" standalone="no"?>
<!DOCTYPE svg PUBLIC "-//W3C//DTD SVG 1.1//EN" "http://www.w3.org/Graphics/SVG/1.1/DTD/svg11.dtd" >
<svg xmlns="http://www.w3.org/2000/svg" xmlns:xlink="http://www.w3.org/1999/xlink" version="1.1" viewBox="-10 0 466 1000">
   <path fill="currentColor"
d="M152.039 241.551v237.121c-0.0126953 0.539062 -0.0195312 1.07812 -0.0195312 1.61621c0 39.8984 35.2451 75.2764 75.2324 75.2764c0.165039 0 0.329102 -0.000976562 0.494141 -0.00195312c0.917969 0.0371094 1.83301 0.0556641 2.74707 0.0556641
c39.9941 0 75.5225 -35.2275 75.5225 -75.3379c0 -0.535156 -0.00683594 -1.07129 -0.0195312 -1.6084v-237.121h94v237.121c0.0195312 1.00098 0.0292969 2.00098 0.0292969 2.99902c0 89.957 -78.5811 167.999 -168.303 167.999
c-1.88477 0 -3.77441 -0.0341797 -5.66797 -0.103516c-0.219727 0.000976562 -0.44043 0.000976562 -0.660156 0.000976562c-89.1074 0 -167.394 -78.5898 -167.394 -167.494c0 -1.13281 0.0126953 -2.26562 0.0380859 -3.40137v-237.121h94z" />
</svg>
