<?xml version="1.0" standalone="no"?>
<!DOCTYPE svg PUBLIC "-//W3C//DTD SVG 1.1//EN" "http://www.w3.org/Graphics/SVG/1.1/DTD/svg11.dtd" >
<svg xmlns="http://www.w3.org/2000/svg" xmlns:xlink="http://www.w3.org/1999/xlink" version="1.1" viewBox="-10 0 362 1000">
   <path fill="currentColor"
d="M133.797 360.449c20.3369 -12.1309 41.1953 -17.5234 61.4102 -17.5234c73.7314 0 138.89 71.7568 138.89 150.078c0 1.76758 -0.0332031 3.53906 -0.100586 5.3125c0.000976562 0.179688 0.000976562 0.359375 0.000976562 0.540039
c0 79.5195 -67.752 150.966 -142.348 150.966c-21.1719 0 -42.8965 -5.75586 -63.7783 -18.7168l-1.86328 -1.01953l-5.92578 11.5195h-78.082v-400.055h90.1055v120.086zM244.566 525.418c1.29492 -7.14258 1.7998 -17.2305 1.7998 -27.377
c0 -10.4287 -0.53418 -20.9209 -1.29199 -28.3457c-3.14453 -14.9609 -12.0117 -28.7969 -25.0664 -36.9258c-9.47266 -6.36914 -19.9385 -9.24316 -30.2471 -9.24316c-29.4756 0 -57.6641 23.4971 -57.6641 55.9844c0 22.0684 -0.0527344 26.458 -0.0947266 26.458
c-0.0283203 0 -0.0517578 -1.91699 -0.0527344 -1.91699v0.00390625c0 12.3613 0.87207 25.167 5.91406 33.5576c8.94922 19.042 29.4365 31.9795 50.4326 31.9795c1.25488 0 2.51074 -0.0458984 3.7666 -0.139648c24.7422 -0.707031 47.2812 -19.875 52.5039 -44.0352z" />
</svg>
