<?xml version="1.0" standalone="no"?>
<!DOCTYPE svg PUBLIC "-//W3C//DTD SVG 1.1//EN" "http://www.w3.org/Graphics/SVG/1.1/DTD/svg11.dtd" >
<svg xmlns="http://www.w3.org/2000/svg" xmlns:xlink="http://www.w3.org/1999/xlink" version="1.1" viewBox="-10 0 326 1000">
   <path fill="currentColor"
d="M298.312 442.594l-81.9727 28.9648l-0.507812 -2.375c-3.72754 -27.4805 -26.6133 -47.6836 -52.2979 -47.6836c-6.80566 0 -13.8076 1.41895 -20.7021 4.49609c-29.0703 11.3877 -34.5518 45.8369 -34.5518 73.6475c0 16.4805 3.27344 57.1553 34.5518 69.6416
c6.89551 2.98047 13.8682 4.3584 20.6328 4.3584c25.7451 0 48.4629 -19.9648 52.3672 -47.5498l0.507812 -2.53906l81.9727 29.1289l-0.675781 2.20312c-19.5322 58.9033 -76.4834 94.7568 -134.551 94.7568c-25.2646 0 -50.7402 -6.78711 -73.4375 -21.417
c-45.1016 -27.2705 -67.6494 -78.9658 -67.6494 -130.641c0 -52.4492 23.2295 -104.876 69.6846 -131.715c22.1611 -13.8945 46.8809 -20.333 71.4111 -20.333c58.0537 0 115.046 36.0586 134.542 94.6846z" />
</svg>
