<?xml version="1.0" encoding="UTF-8"?><svg id="a" xmlns="http://www.w3.org/2000/svg" viewBox="0 0 595.32 1000"><path d="M195.6,500.72l-.48-1.68c-23.91-69.95-115.34-90.01-166.32-36.48C-.02,492.15-5.85,538.07,5.28,576.68c9.82,31.34,35.36,56.85,66.72,66.6l1.8,.48-11.4,46.2h51l11.4-46.44,1.56-.48c31.76-7.1,58.59-31.93,68.76-62.76l.48-1.56-58.08-20.64-.36,1.8c-3.49,24.68-28.24,40.75-51.72,30.6-19.44-7.76-23.98-30.09-24.48-48.96-.05-19.77,3.75-44.44,24.48-52.56,23.32-10.41,48.38,5.97,51.72,30.6l.36,1.68,58.08-20.52Z"/></svg>