<?xml version="1.0" encoding="UTF-8"?><svg id="a" xmlns="http://www.w3.org/2000/svg" viewBox="0 0 595.32 1000"><path d="M180.76,471.56c-29.33-40.34-89.29-51.5-131.64-25.56C17.91,464.26-1.03,499.75,.04,535.76v3.72l.12,3.6c-1.13,40.86,23.08,80.94,61.32,96.48,44.85,18.15,98.03,2.95,135-25.92l2.04-1.68-43.92-43.92-.96,.96c-24.71,24.68-79.21,35.5-88.2-8.88l-.12-.6H200.8l.36-3.84c1.88-29.27-1.47-60.51-20.4-84.12Zm-114,41.16l.12-.6c9.33-36.87,61.41-36.84,70.56,0l.24,.6H66.76Z"/><polygon points="82.36 400.76 119.2 400.76 161.68 344.12 105.04 344.12 82.36 400.76"/></svg>