<?xml version="1.0" encoding="UTF-8"?><svg id="a" xmlns="http://www.w3.org/2000/svg" viewBox="0 0 595.32 1000"><path d="M179.2,493.04l-.84-.12,.84-.24c39.25-12.54,45.8-64.89,25.92-96.48-36.23-57.89-150.08-58.32-187.08-1.08-20.9,31.43-14.45,84.75,25.08,97.56l.96,.24-.84,.12c-46.11,10.46-53.46,72.1-30.6,107.04,40.3,62.75,156.87,62.93,197.04,0,23.13-34.8,15.51-96.61-30.48-107.04Zm-103.08-63.36c8.38-21.61,41.18-22.96,59.16-13.08,11.83,6.58,16.07,22.62,9.96,34.44-10.09,18.31-36.89,19.4-54.48,12.36-12.97-4.84-19.98-20.94-14.64-33.72Zm58.2,152.16c-18.84,5.07-50.45,6.51-62.04-12.24-10.21-15.12-1.48-37.87,16.2-42.36,17.48-4.57,39.66-5.49,55.08,4.92,18.11,13.79,12.53,43.2-9.24,49.68Z"/></svg>