<?xml version="1.0" encoding="UTF-8"?><svg id="a" xmlns="http://www.w3.org/2000/svg" viewBox="0 0 595.32 1000"><path d="M146.06,434.84l-4.56,9.84-1.08-.72C78.36,406.52-1.29,461.35,.02,531.2c-.29,35.42,20.05,69.79,51.12,86.76,26.71,14.74,61.78,17.94,88.08,.72l1.08-.72v.96c-.17,14.69-6.65,31.53-22.08,35.52-28.43,5.29-58.87-4.24-83.52-18.48l-2.04-1.32-28.32,52.44,3.36,1.8c43.86,21.37,108.08,36.46,152.4,9.84,25.08-14.53,42.44-41.93,42.6-71.16v-192.72h-56.64Zm-5.76,92.76v7.8c.16,20.17-17.44,37.96-37.56,38.28-21.15,1.16-40.44-17.09-40.32-38.28v-8.4c-.15-21.17,19.2-39.54,40.32-38.28,20.09,.2,37.75,18.14,37.56,38.28v.6Z"/></svg>