<?xml version="1.0" encoding="UTF-8"?><svg id="a" xmlns="http://www.w3.org/2000/svg" viewBox="0 0 595.32 1000"><path d="M146.72,361.4c-28.69-12.19-62.74-11.8-91.56-.24C3.74,383.81-12.74,453.84,10.28,502.28c21.79,53.49,87.58,71.69,135.48,41.16l1.44-.96-.12,.84c-2.19,23.97-25.15,43.49-49.2,41.4-14.38-.65-29.66-8.04-34.44-22.44l-.12-.48-59.52,25.2,.6,1.44c24.37,54.56,97.35,73.19,149.16,48.12,26.92-12.69,44.86-40.14,53.16-68.04,17.76-67.63,12.69-174.2-60-207.12Zm-53.64,134.28c-33.18-7.75-39.67-55.93-11.76-74.04,23.55-15.9,56.63-.81,60.12,27.36,4.72,28.66-19.4,54.1-48.36,46.68Z"/></svg>