<?xml version="1.0" encoding="UTF-8"?><svg id="a" xmlns="http://www.w3.org/2000/svg" viewBox="0 0 595.32 1000"><polygon points="144.6 352.64 0 647.36 59.52 647.36 204.12 352.64 144.6 352.64"/><path d="M79.92,445.4c12.51-17.43,12.6-41.65,6.96-61.68-5.4-18.2-23.65-31.18-42.6-30.48-40.04,1.66-50.03,44.55-40.92,77.28,9.41,34.36,55.01,43.27,76.56,14.88Zm-51.96-57.72c7.07-14.84,28.84-14.05,35.28,.84,3.46,10.81,2.93,22.89,1.32,34.08-.88,5.03-3.75,9.64-7.92,12.6-11.23,8.4-28.43,1.24-30.48-12.6-1.49-11.41-2.49-24.11,1.8-34.92Z"/><path d="M157.56,537.44c-40.07,1.93-49.86,44.58-40.8,77.4,9.43,34.28,55.11,43.19,76.56,14.76,12.56-17.43,12.49-41.63,6.96-61.68-5.48-18.23-23.73-31.14-42.72-30.48Zm20.4,69.36c-.88,5.13-3.88,9.8-8.16,12.84-11.3,8.07-28.32,.92-30.24-12.84-1.56-11.41-2.46-24.14,1.8-34.92,7.2-14.87,29.05-13.99,35.4,1.2,3.26,10.75,2.84,22.64,1.2,33.72Z"/></svg>