<?xml version="1.0" encoding="UTF-8"?><svg id="a" xmlns="http://www.w3.org/2000/svg" viewBox="0 0 595.32 1000"><path d="M17.67,355.34c-3.75,1.53-7.79,3.59-10.56,6.72-12.37,11.89-7.9,34.84,7.92,41.28,.87,.52,1.91,.9,2.88,1.2,.86,.22,1.78,.5,2.64,.72,.41-.07,.93,.16,1.32,.24,.57-.02,1.22,.19,1.8,.12,.5,.17,1.15,.12,1.68,.12l.12,.12h.24l.12,.12h.24v.12h.24v.12h.12v.12h.12l.48,.48v.12h.12v.12l.12,.12v.12h.12v.24l.12,.12v.36h.12v1.2h-.12v.36h-.12v.24l-.12,.12v.12l-.12,.12v.12h-.12v.12h-.12v.12l-.12,.12h-.12v.12l-.12,.12h-.12v.12h-.24v.12c-4.83,2.1-9.99,3.67-15.24,4.2-2.56,.85-4.28,2.68-4.68,5.64,.02,2.19,.13,4.37,.35,6.65,.18,1.87,.45,3.8,.97,5.59,1.24,4.29,3.74,8.07,8.04,8.52,17.98,.34,35.92-7.72,47.4-21.6,28.79-31.52-6.11-80.46-45.36-64.8Z"/></svg>