<?xml version="1.0" encoding="UTF-8"?><svg id="a" xmlns="http://www.w3.org/2000/svg" viewBox="0 0 595.32 1000"><path d="M0,609.08l2.28,1.92c29.97,23.81,68.17,36.91,106.44,36.48,22.4,.16,46.71-3.05,63.12-19.8,21.12-20.24,25.59-54.93,9.84-79.68-11.17-18.6-31.87-29.43-52.32-34.8l-1.8-.48-45.88-8.71c-2.12-.4-3.97-1.82-4.67-3.86-.42-1.22-.46-2.6,.04-3.99,1.15-2.59,4.78-4.64,7.8-5.4,21.9-5.67,45.41,3.4,62.76,16.8l1.2,.96,40.32-43.92-2.76-1.8c-37.9-23.66-96.14-40.4-138.72-21.36-35.1,16.24-49.67,67.12-23.4,97.08,15.11,16.61,38.93,22.39,60.48,25.2,8.19,1.58,31.48,5.71,34.44,12.6,1.37,3.97-1.15,7-4.45,9.26-2.1,1.44-4.5,2.37-7.01,2.83-21.5,3.98-49.37-7.45-65.58-20.73l-1.32-1.08L0,609.08Z"/></svg>