<?xml version="1.0" encoding="UTF-8"?><svg id="a" xmlns="http://www.w3.org/2000/svg" viewBox="0 0 595.32 1000"><path d="M205.17,497.72c-21.84-53.49-87.56-71.7-135.48-41.16l-1.44,.96,.12-.84c2.14-24,25.17-43.49,49.2-41.4,14.42,.66,29.61,8.06,34.44,22.44l.12,.48,59.52-25.2-.6-1.44c-24.39-54.52-97.34-73.22-149.16-48.12-26.93,12.69-44.87,40.13-53.16,68.04-17.8,67.57-12.67,174.28,60,207.12,28.68,12.19,62.74,11.79,91.56,.24,51.44-22.69,67.83-92.62,44.88-141.12Zm-71.16,80.64c-23.36,15.98-56.64,.7-60-27.36-4.82-28.63,19.44-54.12,48.36-46.68,33.16,7.71,39.74,56.17,11.64,74.04Z"/></svg>