<?xml version="1.0" encoding="UTF-8"?><svg id="a" xmlns="http://www.w3.org/2000/svg" viewBox="0 0 595.32 1000"><path d="M.1,557.24l.36,2.28c4.44,37.15,28.68,70.96,65.64,81,53.33,16.52,130.77,7.34,150.48-53.28,11.09-32.55,8.36-79.4-30.24-90.96l-.84-.24,.72-.24c14.18-5.36,23.43-18.58,28.2-32.52,7.6-21.14,4.17-45.16-7.2-64.32-22.79-41.83-75.67-51.81-119.28-44.28C41.58,360.9,2.3,394.15,.7,442.88v1.56l66.84,6.48v-.6c-1.84-33.24,40.58-45.86,66.36-34.08,11.07,5.71,17.61,19.21,14.28,31.32-5.71,19.88-38.53,22.38-55.92,20.28l-1.44-.12v58.92l4.8-.24c15.46,.47,34.04-3.54,46.56,7.56,12.54,11.01,12.13,32.27-.96,42.72-13.95,10.8-33.88,10.49-50.04,5.16-13.61-5.09-23.39-19-23.28-33.6v-.6L.1,557.24Z"/></svg>