<?xml version="1.0" encoding="UTF-8"?><svg id="a" xmlns="http://www.w3.org/2000/svg" viewBox="0 0 595.32 1000"><path d="M11.2,641.72H216.64v-59.52H125.92l44.28-37.68c21.38-17.35,39.44-39.88,45.24-67.32,8.85-38.56-4.11-83.36-38.88-104.76-41.11-27-99.01-26.13-140.04,.6C7.95,394-2.81,433.01,.76,467.12l.24,2.04H69.28l-.12-.96c-2.93-21.11,7.82-46.01,29.64-51.84,10.98-2.82,23.2-1.03,33.48,3.48,19.13,9.38,21.04,34.64,13.44,52.44-19.34,40.04-99.6,82.93-131.28,112.32-2.06,2.52-3.27,5.76-3.24,9v48.12Z"/></svg>