<?xml version="1.0" encoding="UTF-8"?><svg id="a" xmlns="http://www.w3.org/2000/svg" viewBox="0 0 595.32 1000"><path d="M0,565.16c1.13,68.97,75.88,102.02,131.88,66.12l1.44-.84,5.64,11.28h55.2v-206.88h-65.16v115.44c-1.65,42.4-62.13,42.31-63.72,0v-115.44H0v130.32Z"/><path d="M46.8,403.64c22.65,.32,38.23-24.63,28.08-44.88-11.03-23.07-45.15-23.21-56.04,0-10.41,20.07,5.41,45.23,27.96,44.88Z"/><path d="M147.48,403.64c22.54,.33,38.35-24.78,27.96-44.88-10.92-23.17-44.99-23.12-56.04,0-10.17,20.24,5.43,45.21,28.08,44.88Z"/></svg>